<svg xmlns="http://www.w3.org/2000/svg" width="56.354" height="61.133" viewBox="0 0 56.354 61.133">
  <g id="i-AI" transform="translate(-688.769 -577.919)">
    <g id="Сгруппировать_1545" data-name="Сгруппировать 1545">
      <g id="Сгруппировать_1544" data-name="Сгруппировать 1544">
        <path id="Контур_1214" data-name="Контур 1214" d="M744.623,620V594.889a5.929,5.929,0,0,0-2.965-5.135l-21.747-10.473a5.927,5.927,0,0,0-5.93,0l-21.747,10.473a5.929,5.929,0,0,0-2.965,5.135V620a5.929,5.929,0,0,0,2.965,5.136l21.747,12.556a5.932,5.932,0,0,0,5.93,0l21.747-12.556A5.929,5.929,0,0,0,744.623,620Z" fill="#fff" stroke="#2782fc" stroke-miterlimit="10" stroke-width="1"/>
      </g>
    </g>
    <g id="Сгруппировать_1557" data-name="Сгруппировать 1557">
      <path id="Контур_1215" data-name="Контур 1215" d="M717.055,625.551a17.114,17.114,0,1,1,17.1-17.128A17.133,17.133,0,0,1,717.055,625.551Zm-.03-33.585a16.472,16.472,0,1,0,16.486,16.458A16.49,16.49,0,0,0,717.025,591.966Z" fill="#2782fc"/>
      <path id="Контур_1216" data-name="Контур 1216" d="M717.044,613.474a5.037,5.037,0,1,1,5.033-5.04A5.042,5.042,0,0,1,717.044,613.474Zm-.008-9.431a4.394,4.394,0,1,0,4.4,4.392A4.4,4.4,0,0,0,717.036,604.043Z" fill="#2782fc"/>
      <g id="Сгруппировать_1549" data-name="Сгруппировать 1549">
        <circle id="Эллипс_230" data-name="Эллипс 230" cx="7.923" cy="7.923" r="7.923" transform="translate(705.819 592.171) rotate(-45)" fill="#2782fc"/>
        <g id="Сгруппировать_1548" data-name="Сгруппировать 1548">
          <g id="Сгруппировать_1547" data-name="Сгруппировать 1547">
            <g id="Сгруппировать_1546" data-name="Сгруппировать 1546">
              <path id="Контур_1217" data-name="Контур 1217" d="M718.64,593.232a.5.5,0,0,1-.332-.769,3.432,3.432,0,0,0,.61-1.237,1.686,1.686,0,0,0,.6-1.115c.035-.668-.125-.7-.125-.7.237-.727.313-3.459-1.448-3.131a1.876,1.876,0,0,0-2.991.507,3.223,3.223,0,0,0-.251,2.648c-.012.063-.118-.062-.156.33a2.009,2.009,0,0,0,.321,1.17.779.779,0,0,0,.3.222,3.034,3.034,0,0,0,.64,1.307.728.728,0,0,1-.38.769c-1.662.32-3.189,1.24-3.188,2.234,0,.073,0,.77,0,.77,0,1.078,2.524,1.307,4.8,1.305s4.776-.654,4.776-1.314c0,0,0-.7,0-.77C721.812,594.466,720.3,593.548,718.64,593.232Z" fill="#fff"/>
            </g>
          </g>
        </g>
      </g>
      <g id="Сгруппировать_1550" data-name="Сгруппировать 1550">
        <path id="Контур_1218" data-name="Контур 1218" d="M739.187,616.341a7.923,7.923,0,1,1-7.93-7.916A7.924,7.924,0,0,1,739.187,616.341Z" fill="#2782fc"/>
      </g>
      <g id="Сгруппировать_1555" data-name="Сгруппировать 1555">
        <g id="Сгруппировать_1551" data-name="Сгруппировать 1551">
          <path id="Контур_1219" data-name="Контур 1219" d="M710.551,616.367a7.924,7.924,0,1,1-7.931-7.916A7.924,7.924,0,0,1,710.551,616.367Z" fill="#2782fc"/>
        </g>
        <g id="Сгруппировать_1554" data-name="Сгруппировать 1554">
          <g id="Сгруппировать_1552" data-name="Сгруппировать 1552">
            <path id="Контур_1220" data-name="Контур 1220" d="M704.018,618.833a.914.914,0,1,0,.914-.916A.915.915,0,0,0,704.018,618.833Z" fill="#fff"/>
          </g>
          <g id="Сгруппировать_1553" data-name="Сгруппировать 1553">
            <path id="Контур_1221" data-name="Контур 1221" d="M698.48,618.838a.915.915,0,1,0,.914-.916A.915.915,0,0,0,698.48,618.838Z" fill="#fff"/>
          </g>
          <path id="Контур_1222" data-name="Контур 1222" d="M697.216,616.268c0,.374,0,1.978,0,1.978a.4.4,0,0,0,.4.4h.393a1.4,1.4,0,0,1,2.774,0,.4.4,0,0,0,.393-.4l0-3.956a.4.4,0,0,0-.4-.4l-1.78,0c-.29,0-.412.178-.593.4l-.883,1.179A1.7,1.7,0,0,0,697.216,616.268Zm.663,0a.732.732,0,0,1,.153-.336l.832-1.154s.089-.093.152-.093h.968v1.582Z" fill="#fff"/>
          <path id="Контур_1223" data-name="Контур 1223" d="M701.96,612.308l5.142-.005a.4.4,0,0,1,.4.4l.005,5.538a.4.4,0,0,1-.4.4h-.789a1.4,1.4,0,0,0-2.774,0l-1.579,0a.4.4,0,0,1-.4-.4l-.005-5.539A.4.4,0,0,1,701.96,612.308Z" fill="#fff"/>
        </g>
      </g>
      <g id="Сгруппировать_1556" data-name="Сгруппировать 1556">
        <path id="Контур_1224" data-name="Контур 1224" d="M733.754,614.6a.664.664,0,0,1-1.155.446,1.773,1.773,0,0,0-2.623,0,.663.663,0,0,1-.984-.89,3.1,3.1,0,0,1,4.589,0A.668.668,0,0,1,733.754,614.6Z" fill="#fff"/>
        <path id="Контур_1225" data-name="Контур 1225" d="M735.223,612.94a.664.664,0,0,1-1.131.472,3.984,3.984,0,0,0-5.615,0,.664.664,0,0,1-.937-.94,5.314,5.314,0,0,1,7.487-.005A.659.659,0,0,1,735.223,612.94Z" fill="#fff"/>
        <path id="Контур_1226" data-name="Контур 1226" d="M731.287,615.435a.8.8,0,1,0,.8.8A.8.8,0,0,0,731.287,615.435Z" fill="#fff"/>
        <path id="Контур_1227" data-name="Контур 1227" d="M733.756,617.87a.661.661,0,0,1-.172.445,3.1,3.1,0,0,1-4.589,0,.663.663,0,0,1,.981-.893,1.773,1.773,0,0,0,2.624,0,.663.663,0,0,1,1.156.444Z" fill="#fff"/>
        <path id="Контур_1228" data-name="Контур 1228" d="M735.231,619.528a.665.665,0,0,1-.2.471,5.313,5.313,0,0,1-7.487,0,.663.663,0,1,1,.934-.941,3.987,3.987,0,0,0,5.616,0,.664.664,0,0,1,1.132.469Z" fill="#fff"/>
      </g>
    </g>
  </g>
</svg>
