<svg xmlns="http://www.w3.org/2000/svg" width="56.354" height="61.133" viewBox="0 0 56.354 61.133">
  <g id="Сгруппировать_1558" data-name="Сгруппировать 1558" transform="translate(-688.769 -577.919)">
    <g id="Сгруппировать_1545" data-name="Сгруппировать 1545">
      <g id="Сгруппировать_1544" data-name="Сгруппировать 1544">
        <path id="Контур_1214" data-name="Контур 1214" d="M744.623,620V594.889a5.929,5.929,0,0,0-2.965-5.135l-21.747-10.473a5.927,5.927,0,0,0-5.93,0l-21.747,10.473a5.929,5.929,0,0,0-2.965,5.135V620a5.929,5.929,0,0,0,2.965,5.136l21.747,12.556a5.932,5.932,0,0,0,5.93,0l21.747-12.556A5.929,5.929,0,0,0,744.623,620Z" fill="#fff" stroke="#f0b43c" stroke-miterlimit="10" stroke-width="1"/>
      </g>
    </g>
    <g id="Сгруппировать_1559" data-name="Сгруппировать 1559" transform="translate(-36.362 401.247)">
      <path id="Контур_1229" data-name="Контур 1229" d="M773.22,216.972l-7.144-7.152-2.74-2.743a1.692,1.692,0,0,0-1.965-.015l-.961-.953c.019-.022.035-.046.054-.069.075-.09.143-.186.216-.278.147-.188.292-.376.427-.571.069-.1.132-.206.2-.309.126-.2.249-.394.363-.6.062-.111.119-.225.177-.338.1-.2.2-.4.294-.609.056-.127.109-.255.161-.385.077-.2.149-.391.216-.59.05-.149.1-.3.143-.449.051-.176.094-.354.137-.533s.087-.36.122-.544c.024-.13.04-.261.059-.392a11.455,11.455,0,1,0-19,6.756h2.555a9.939,9.939,0,1,1,8.758.713,4.059,4.059,0,0,1,1.149,1.207,11.529,11.529,0,0,0,2.428-1.509l.958.806a1.665,1.665,0,0,0,.116,1.963l2.795,2.781,7.139,7.1c.605.6,1.854.364,2.767-.553S773.822,217.574,773.22,216.972Z" fill="#f0b43c"/>
      <path id="Контур_1230" data-name="Контур 1230" d="M753,222H739.02a4.393,4.393,0,0,1-4.389-4.389v-6.369a4.393,4.393,0,0,1,4.389-4.389H753a4.394,4.394,0,0,1,4.39,4.389v6.369A4.394,4.394,0,0,1,753,222ZM739.02,207.549a3.7,3.7,0,0,0-3.7,3.693v6.369a3.7,3.7,0,0,0,3.7,3.693H753a3.7,3.7,0,0,0,3.7-3.693v-6.369a3.7,3.7,0,0,0-3.7-3.693Z" fill="#f0b43c"/>
      <path id="Контур_1231" data-name="Контур 1231" d="M740.731,217.25a3.41,3.41,0,1,1,3.41-3.41A3.414,3.414,0,0,1,740.731,217.25Zm0-6.212a2.8,2.8,0,1,0,2.8,2.8A2.806,2.806,0,0,0,740.731,211.038Z" fill="#f0b43c"/>
      <path id="Контур_1232" data-name="Контур 1232" d="M751.285,217.25a3.41,3.41,0,1,1,3.41-3.41A3.414,3.414,0,0,1,751.285,217.25Zm0-6.212a2.8,2.8,0,1,0,2.8,2.8A2.806,2.806,0,0,0,751.285,211.038Z" fill="#f0b43c"/>
      <rect id="Прямоугольник_2337" data-name="Прямоугольник 2337" width="10.554" height="0.608" transform="translate(740.731 216.642)" fill="#f0b43c"/>
    </g>
  </g>
</svg>
