<svg xmlns="http://www.w3.org/2000/svg" width="56.354" height="61.133" viewBox="0 0 56.354 61.133">
  <g id="Сгруппировать_1628" data-name="Сгруппировать 1628" transform="translate(-688.769 -577.919)">
    <g id="Сгруппировать_1545" data-name="Сгруппировать 1545">
      <g id="Сгруппировать_1544" data-name="Сгруппировать 1544">
        <path id="Контур_1214" data-name="Контур 1214" d="M744.623,620V594.889a5.929,5.929,0,0,0-2.965-5.135l-21.747-10.473a5.927,5.927,0,0,0-5.93,0l-21.747,10.473a5.929,5.929,0,0,0-2.965,5.135V620a5.929,5.929,0,0,0,2.965,5.136l21.747,12.556a5.932,5.932,0,0,0,5.93,0l21.747-12.556A5.929,5.929,0,0,0,744.623,620Z" fill="#fff" stroke="#dc506e" stroke-miterlimit="10" stroke-width="1"/>
      </g>
    </g>
    <g id="Сгруппировать_1564" data-name="Сгруппировать 1564" transform="translate(-54.123 306.274)">
      <rect id="Прямоугольник_2338" data-name="Прямоугольник 2338" width="46.887" height="15.76" rx="7.88" transform="translate(747.392 289.212)" fill="#dc506e"/>
      <g id="Сгруппировать_1561" data-name="Сгруппировать 1561">
        <g id="Сгруппировать_1560" data-name="Сгруппировать 1560">
          <path id="Контур_1233" data-name="Контур 1233" d="M754.055,293.4h2.567a3.517,3.517,0,0,1,1.47.208,2.159,2.159,0,0,1,1.317,2.129,2.245,2.245,0,0,1-1.3,2.128v.022a2.859,2.859,0,0,1,.251.406l1.6,2.9h-1.591l-1.536-2.907h-1.36v2.907h-1.415Zm2.688,3.653a1.144,1.144,0,0,0,1.229-1.24,1.05,1.05,0,0,0-.615-1.064,2.019,2.019,0,0,0-.856-.131H755.47v2.435Z" fill="#fff"/>
          <path id="Контур_1234" data-name="Контур 1234" d="M761.078,293.4h4.663v1.218h-3.248v2.04h2.622v1.218h-2.622v2.1h3.424v1.217h-4.839Z" fill="#fff"/>
          <path id="Контур_1235" data-name="Контур 1235" d="M769.079,294.621h-2.557V293.4h6.517v1.218h-2.556v6.571h-1.4Z" fill="#fff"/>
          <path id="Контур_1236" data-name="Контур 1236" d="M775.378,293.4h1.492l2.732,7.789h-1.448l-.67-2h-2.731l-.658,2h-1.449Zm1.756,4.64-.692-2.084c-.131-.438-.307-1.207-.307-1.207h-.022s-.176.769-.307,1.207l-.7,2.084Z" fill="#fff"/>
          <path id="Контур_1237" data-name="Контур 1237" d="M780.636,293.4h1.415v7.789h-1.415Z" fill="#fff"/>
          <path id="Контур_1238" data-name="Контур 1238" d="M783.939,293.4h1.415v6.572h3.369v1.217h-4.784Z" fill="#fff"/>
        </g>
      </g>
      <g id="Сгруппировать_1563" data-name="Сгруппировать 1563">
        <g id="Сгруппировать_1562" data-name="Сгруппировать 1562">
          <path id="Контур_1239" data-name="Контур 1239" d="M757.85,307.791h2.976a2.364,2.364,0,0,1,2.455,2.51,2.391,2.391,0,0,1-2.455,2.542h-1.575v2.662h-1.4Zm2.715,3.835a1.213,1.213,0,0,0,1.293-1.325,1.2,1.2,0,0,0-1.271-1.3h-1.336v2.629Z" fill="#dc506e"/>
          <path id="Контур_1240" data-name="Контур 1240" d="M765.962,307.791h1.477l2.706,7.714h-1.434l-.663-1.978h-2.7l-.652,1.978h-1.434Zm1.738,4.6-.684-2.064c-.13-.435-.3-1.2-.3-1.2h-.023s-.173.761-.3,1.2l-.7,2.064Z" fill="#dc506e"/>
          <path id="Контур_1241" data-name="Контур 1241" d="M774.509,307.661a4.115,4.115,0,0,1,2.846,1.054l-.673,1.043a3.433,3.433,0,0,0-2.108-.815,2.483,2.483,0,0,0-2.586,2.651,2.581,2.581,0,0,0,2.6,2.76,3.307,3.307,0,0,0,2.238-.979l.739,1.011a4.135,4.135,0,0,1-3.031,1.249,3.987,3.987,0,0,1-.022-7.974Z" fill="#dc506e"/>
          <path id="Контур_1242" data-name="Контур 1242" d="M778.764,307.791h1.4v3.14h1l1.815-3.14H784.5l-2.184,3.672v.022l2.314,4.02h-1.586l-1.88-3.368h-1v3.368h-1.4Z" fill="#dc506e"/>
        </g>
      </g>
    </g>
  </g>
</svg>
