<svg xmlns="http://www.w3.org/2000/svg" width="56.354" height="61.133" viewBox="0 0 56.354 61.133">
  <g id="Сгруппировать_1629" data-name="Сгруппировать 1629" transform="translate(-688.769 -577.919)">
    <g id="Сгруппировать_1545" data-name="Сгруппировать 1545">
      <g id="Сгруппировать_1544" data-name="Сгруппировать 1544">
        <path id="Контур_1214" data-name="Контур 1214" d="M744.623,620V594.889a5.929,5.929,0,0,0-2.965-5.135l-21.747-10.473a5.927,5.927,0,0,0-5.93,0l-21.747,10.473a5.929,5.929,0,0,0-2.965,5.135V620a5.929,5.929,0,0,0,2.965,5.136l21.747,12.556a5.932,5.932,0,0,0,5.93,0l21.747-12.556A5.929,5.929,0,0,0,744.623,620Z" fill="#fff" stroke="#64b4d2" stroke-miterlimit="10" stroke-width="1"/>
      </g>
    </g>
    <g id="Сгруппировать_1579" data-name="Сгруппировать 1579" transform="translate(-176.831 369.779)">
      <g id="Сгруппировать_1566" data-name="Сгруппировать 1566">
        <g id="Сгруппировать_1565" data-name="Сгруппировать 1565">
          <path id="Контур_1243" data-name="Контур 1243" d="M907.743,241.643l-27.824-.053-5.237,11.639,38.255.073Z" fill="#fff"/>
          <path id="Контур_1244" data-name="Контур 1244" d="M913.517,253.68,874.1,253.6l5.576-12.392,28.312.054.1.222Zm-38.254-.827,37.093.071-4.857-10.9-27.337-.052Z" fill="#64b4d2"/>
        </g>
      </g>
      <g id="Сгруппировать_1570" data-name="Сгруппировать 1570">
        <g id="Сгруппировать_1567" data-name="Сгруппировать 1567">
          <rect id="Прямоугольник_2339" data-name="Прямоугольник 2339" width="27.825" height="16.836" transform="translate(879.958 221.086) rotate(0.11)" fill="#fff"/>
          <path id="Контур_1245" data-name="Контур 1245" d="M908.127,238.353l-28.579-.055.034-17.59,28.579.054Zm-27.823-.807,27.07.052.031-16.083-27.07-.052Z" fill="#64b4d2"/>
        </g>
        <g id="Сгруппировать_1568" data-name="Сгруппировать 1568">
          <line id="Линия_409" data-name="Линия 409" x1="27.824" y1="0.053" transform="translate(879.942 229.504)" fill="#004677"/>
          <rect id="Прямоугольник_2340" data-name="Прямоугольник 2340" width="0.754" height="27.825" transform="matrix(0.002, -1, 1, 0.002, 879.941, 229.88)" fill="#64b4d2"/>
        </g>
        <g id="Сгруппировать_1569" data-name="Сгруппировать 1569">
          <line id="Линия_410" data-name="Линия 410" x1="0.032" y2="16.836" transform="translate(893.448 221.323)" fill="#004677"/>
          <rect id="Прямоугольник_2341" data-name="Прямоугольник 2341" width="16.837" height="0.754" transform="matrix(0.002, -1, 1, 0.002, 893.073, 238.158)" fill="#64b4d2"/>
        </g>
      </g>
      <g id="Сгруппировать_1572" data-name="Сгруппировать 1572">
        <g id="Сгруппировать_1571" data-name="Сгруппировать 1571">
          <path id="Контур_1246" data-name="Контур 1246" d="M880.328,245.78c.005-2.653,3.7-3.323,3.705-7.279a3.692,3.692,0,0,0-7.383-.015c-.008,3.957,3.683,4.641,3.678,7.294" fill="#fff"/>
          <path id="Контур_1247" data-name="Контур 1247" d="M880.846,245.781l-1.037,0c0-.988-.628-1.658-1.425-2.508a6.546,6.546,0,0,1-2.252-4.785,4.21,4.21,0,0,1,8.419.016,6.543,6.543,0,0,1-2.27,4.776C881.48,244.125,880.848,244.792,880.846,245.781Zm-.5-10.461a3.178,3.178,0,0,0-3.18,3.167,5.528,5.528,0,0,0,1.973,4.072,9.319,9.319,0,0,1,1.19,1.457,9.233,9.233,0,0,1,1.2-1.452,5.529,5.529,0,0,0,1.988-4.065A3.176,3.176,0,0,0,880.348,235.32Z" fill="#64b4d2"/>
        </g>
        <path id="Контур_1248" data-name="Контур 1248" d="M882,238.639a1.656,1.656,0,1,1-1.653-1.659A1.655,1.655,0,0,1,882,238.639Z" fill="#64b4d2"/>
      </g>
      <g id="Сгруппировать_1574" data-name="Сгруппировать 1574">
        <g id="Сгруппировать_1573" data-name="Сгруппировать 1573">
          <path id="Контур_1249" data-name="Контур 1249" d="M888.793,249.63c0-2.653,3.7-3.324,3.7-7.28a3.692,3.692,0,0,0-7.383-.014c-.008,3.956,3.683,4.641,3.678,7.294" fill="#fff"/>
          <path id="Контур_1250" data-name="Контур 1250" d="M889.311,249.631l-1.037,0c0-.988-.628-1.658-1.425-2.509a6.543,6.543,0,0,1-2.252-4.784,4.21,4.21,0,1,1,8.419.016,6.546,6.546,0,0,1-2.27,4.776C889.945,247.975,889.313,248.643,889.311,249.631Zm-.5-10.46a3.177,3.177,0,0,0-3.18,3.167,5.53,5.53,0,0,0,1.973,4.072,9.235,9.235,0,0,1,1.19,1.457,9.23,9.23,0,0,1,1.2-1.452,5.528,5.528,0,0,0,1.988-4.065A3.176,3.176,0,0,0,888.813,239.171Z" fill="#64b4d2"/>
        </g>
        <path id="Контур_1251" data-name="Контур 1251" d="M890.461,242.488a1.655,1.655,0,1,1-1.652-1.658A1.655,1.655,0,0,1,890.461,242.488Z" fill="#64b4d2"/>
      </g>
      <g id="Сгруппировать_1576" data-name="Сгруппировать 1576">
        <g id="Сгруппировать_1575" data-name="Сгруппировать 1575">
          <path id="Контур_1252" data-name="Контур 1252" d="M898.8,251.3c.005-2.652,3.7-3.323,3.706-7.279a3.692,3.692,0,1,0-7.383-.014c-.008,3.956,3.682,4.641,3.677,7.293" fill="#fff"/>
          <path id="Контур_1253" data-name="Контур 1253" d="M899.317,251.306l-1.036,0c0-.989-.628-1.659-1.425-2.509a6.542,6.542,0,0,1-2.252-4.785,4.21,4.21,0,0,1,8.419.016,6.543,6.543,0,0,1-2.271,4.776C899.952,249.65,899.319,250.318,899.317,251.306Zm-.5-10.461a3.176,3.176,0,0,0-3.179,3.167,5.532,5.532,0,0,0,1.972,4.073,9.218,9.218,0,0,1,1.191,1.456,9.276,9.276,0,0,1,1.2-1.452,5.527,5.527,0,0,0,1.989-4.064A3.178,3.178,0,0,0,898.819,240.845Z" fill="#64b4d2"/>
        </g>
        <path id="Контур_1254" data-name="Контур 1254" d="M900.468,244.163a1.656,1.656,0,1,1-1.652-1.659A1.654,1.654,0,0,1,900.468,244.163Z" fill="#64b4d2"/>
      </g>
      <g id="Сгруппировать_1578" data-name="Сгруппировать 1578">
        <g id="Сгруппировать_1577" data-name="Сгруппировать 1577">
          <path id="Контур_1255" data-name="Контур 1255" d="M906.957,244.738c.005-2.652,3.7-3.323,3.705-7.279a3.692,3.692,0,1,0-7.383-.014c-.007,3.956,3.683,4.641,3.678,7.293" fill="#fff"/>
          <path id="Контур_1256" data-name="Контур 1256" d="M907.475,244.739l-1.037,0c0-.988-.628-1.659-1.425-2.509a6.543,6.543,0,0,1-2.252-4.784,4.21,4.21,0,1,1,8.419.016,6.543,6.543,0,0,1-2.271,4.776C908.109,243.083,907.477,243.751,907.475,244.739Zm-.5-10.46a3.177,3.177,0,0,0-3.18,3.167,5.53,5.53,0,0,0,1.973,4.072,9.273,9.273,0,0,1,1.19,1.456,9.223,9.223,0,0,1,1.2-1.451,5.534,5.534,0,0,0,1.988-4.065A3.176,3.176,0,0,0,906.977,234.279Z" fill="#64b4d2"/>
        </g>
        <path id="Контур_1257" data-name="Контур 1257" d="M908.626,237.6a1.655,1.655,0,1,1-1.652-1.659A1.655,1.655,0,0,1,908.626,237.6Z" fill="#64b4d2"/>
      </g>
    </g>
  </g>
</svg>
