<svg xmlns="http://www.w3.org/2000/svg" width="56.354" height="61.133" viewBox="0 0 56.354 61.133">
  <g id="Сгруппировать_1630" data-name="Сгруппировать 1630" transform="translate(-688.769 -577.919)">
    <g id="Сгруппировать_1545" data-name="Сгруппировать 1545">
      <g id="Сгруппировать_1544" data-name="Сгруппировать 1544">
        <path id="Контур_1214" data-name="Контур 1214" d="M744.623,620V594.889a5.929,5.929,0,0,0-2.965-5.135l-21.747-10.473a5.927,5.927,0,0,0-5.93,0l-21.747,10.473a5.929,5.929,0,0,0-2.965,5.135V620a5.929,5.929,0,0,0,2.965,5.136l21.747,12.556a5.932,5.932,0,0,0,5.93,0l21.747-12.556A5.929,5.929,0,0,0,744.623,620Z" fill="#fff" stroke="#f0783c" stroke-miterlimit="10" stroke-width="1"/>
      </g>
    </g>
    <g id="Сгруппировать_1593" data-name="Сгруппировать 1593" transform="translate(1503.036 -1791.802)">
      <g id="Сгруппировать_1582" data-name="Сгруппировать 1582">
        <path id="Контур_1258" data-name="Контур 1258" d="M-774.785,2399.85H-797.3a3.468,3.468,0,0,1-3.463-3.463v-12.634a3.468,3.468,0,0,1,3.463-3.464h22.519a3.468,3.468,0,0,1,3.463,3.464v12.634A3.468,3.468,0,0,1-774.785,2399.85Zm-22.519-18.774a2.679,2.679,0,0,0-2.676,2.677v12.634a2.679,2.679,0,0,0,2.676,2.676h22.519a2.679,2.679,0,0,0,2.676-2.676v-12.634a2.679,2.679,0,0,0-2.676-2.677Z" fill="#f0783c"/>
        <g id="Сгруппировать_1581" data-name="Сгруппировать 1581">
          <g id="Сгруппировать_1580" data-name="Сгруппировать 1580">
            <line id="Линия_411" data-name="Линия 411" x2="13.71" transform="translate(-792.899 2393.343)" fill="#fff"/>
            <rect id="Прямоугольник_2342" data-name="Прямоугольник 2342" width="13.71" height="0.197" transform="translate(-792.899 2393.245)" fill="#231f20"/>
          </g>
        </g>
      </g>
      <g id="Сгруппировать_1587" data-name="Сгруппировать 1587">
        <path id="Контур_1259" data-name="Контур 1259" d="M-774.785,2403.759H-797.3a3.468,3.468,0,0,1-3.463-3.464v-12.634a3.468,3.468,0,0,1,3.463-3.463h22.519a3.467,3.467,0,0,1,3.463,3.463v12.634A3.468,3.468,0,0,1-774.785,2403.759Zm-22.519-18.774a2.679,2.679,0,0,0-2.676,2.676v12.634a2.679,2.679,0,0,0,2.676,2.677h22.519a2.679,2.679,0,0,0,2.676-2.677v-12.634a2.679,2.679,0,0,0-2.676-2.676Z" fill="#f0783c"/>
        <g id="Сгруппировать_1586" data-name="Сгруппировать 1586">
          <g id="Сгруппировать_1583" data-name="Сгруппировать 1583">
            <circle id="Эллипс_231" data-name="Эллипс 231" cx="4.035" cy="4.035" r="4.035" transform="translate(-796.935 2389.181)" fill="#fff"/>
            <path id="Контур_1260" data-name="Контур 1260" d="M-792.9,2397.35a4.138,4.138,0,0,1-4.134-4.133,4.138,4.138,0,0,1,4.134-4.134,4.138,4.138,0,0,1,4.133,4.134A4.138,4.138,0,0,1-792.9,2397.35Zm0-8.07a3.941,3.941,0,0,0-3.937,3.937,3.941,3.941,0,0,0,3.937,3.936,3.941,3.941,0,0,0,3.936-3.936A3.941,3.941,0,0,0-792.9,2389.28Z" fill="#231f20"/>
          </g>
          <g id="Сгруппировать_1584" data-name="Сгруппировать 1584">
            <circle id="Эллипс_232" data-name="Эллипс 232" cx="4.035" cy="4.035" r="4.035" transform="matrix(0.16, -0.987, 0.987, 0.16, -783.819, 2396.553)" fill="#fff"/>
            <path id="Контур_1261" data-name="Контур 1261" d="M-779.19,2397.35a4.138,4.138,0,0,1-4.133-4.133,4.138,4.138,0,0,1,4.133-4.134,4.139,4.139,0,0,1,4.134,4.134A4.138,4.138,0,0,1-779.19,2397.35Zm0-8.07a3.942,3.942,0,0,0-3.937,3.937,3.942,3.942,0,0,0,3.937,3.936,3.941,3.941,0,0,0,3.937-3.936A3.941,3.941,0,0,0-779.19,2389.28Z" fill="#231f20"/>
          </g>
          <g id="Сгруппировать_1585" data-name="Сгруппировать 1585">
            <line id="Линия_412" data-name="Линия 412" x2="13.71" transform="translate(-792.899 2397.252)" fill="#fff"/>
            <rect id="Прямоугольник_2343" data-name="Прямоугольник 2343" width="13.71" height="0.197" transform="translate(-792.899 2397.153)" fill="#231f20"/>
          </g>
        </g>
      </g>
      <g id="Сгруппировать_1588" data-name="Сгруппировать 1588">
        <rect id="Прямоугольник_2344" data-name="Прямоугольник 2344" width="28.658" height="18.774" rx="3.164" transform="translate(-800.374 2388.5)" fill="#fff"/>
        <path id="Контур_1262" data-name="Контур 1262" d="M-774.785,2407.667H-797.3a3.467,3.467,0,0,1-3.463-3.463V2391.57a3.468,3.468,0,0,1,3.463-3.463h22.519a3.468,3.468,0,0,1,3.463,3.463V2404.2A3.467,3.467,0,0,1-774.785,2407.667Zm-22.519-18.773a2.678,2.678,0,0,0-2.676,2.676V2404.2a2.679,2.679,0,0,0,2.676,2.677h22.519a2.679,2.679,0,0,0,2.676-2.677V2391.57a2.678,2.678,0,0,0-2.676-2.676Z" fill="#f0783c"/>
      </g>
      <g id="Сгруппировать_1592" data-name="Сгруппировать 1592">
        <g id="Сгруппировать_1589" data-name="Сгруппировать 1589">
          <circle id="Эллипс_233" data-name="Эллипс 233" cx="4.035" cy="4.035" r="4.035" transform="translate(-796.935 2393.09)" fill="#fff"/>
          <path id="Контур_1263" data-name="Контур 1263" d="M-792.9,2401.554a4.434,4.434,0,0,1-4.429-4.429,4.433,4.433,0,0,1,4.429-4.428,4.433,4.433,0,0,1,4.428,4.428A4.434,4.434,0,0,1-792.9,2401.554Zm0-8.071a3.646,3.646,0,0,0-3.642,3.642,3.646,3.646,0,0,0,3.642,3.642,3.646,3.646,0,0,0,3.641-3.642A3.646,3.646,0,0,0-792.9,2393.483Z" fill="#f0783c"/>
        </g>
        <g id="Сгруппировать_1590" data-name="Сгруппировать 1590">
          <circle id="Эллипс_234" data-name="Эллипс 234" cx="4.035" cy="4.035" r="4.035" transform="translate(-783.225 2393.09)" fill="#fff"/>
          <path id="Контур_1264" data-name="Контур 1264" d="M-779.19,2401.554a4.433,4.433,0,0,1-4.428-4.429,4.433,4.433,0,0,1,4.428-4.428,4.433,4.433,0,0,1,4.429,4.428A4.434,4.434,0,0,1-779.19,2401.554Zm0-8.071a3.646,3.646,0,0,0-3.641,3.642,3.646,3.646,0,0,0,3.641,3.642,3.646,3.646,0,0,0,3.642-3.642A3.646,3.646,0,0,0-779.19,2393.483Z" fill="#f0783c"/>
        </g>
        <g id="Сгруппировать_1591" data-name="Сгруппировать 1591">
          <line id="Линия_413" data-name="Линия 413" x2="13.71" transform="translate(-792.899 2401.16)" fill="#fff"/>
          <rect id="Прямоугольник_2345" data-name="Прямоугольник 2345" width="13.71" height="0.787" transform="translate(-792.899 2400.767)" fill="#f0783c"/>
        </g>
      </g>
      <path id="Контур_1265" data-name="Контур 1265" d="M-784.137,2414.48v-10.49H-788.4v10.49h-4.041l6.17,6.17,6.17-6.17Z" fill="#f0783c"/>
    </g>
  </g>
</svg>
