<svg xmlns="http://www.w3.org/2000/svg" width="56.354" height="61.133" viewBox="0 0 56.354 61.133">
  <g id="Сгруппировать_1631" data-name="Сгруппировать 1631" transform="translate(-688.769 -577.919)">
    <g id="Сгруппировать_1545" data-name="Сгруппировать 1545">
      <g id="Сгруппировать_1544" data-name="Сгруппировать 1544">
        <path id="Контур_1214" data-name="Контур 1214" d="M744.623,620V594.889a5.929,5.929,0,0,0-2.965-5.135l-21.747-10.473a5.927,5.927,0,0,0-5.93,0l-21.747,10.473a5.929,5.929,0,0,0-2.965,5.135V620a5.929,5.929,0,0,0,2.965,5.136l21.747,12.556a5.932,5.932,0,0,0,5.93,0l21.747-12.556A5.929,5.929,0,0,0,744.623,620Z" fill="#fff" stroke="#5abeaa" stroke-miterlimit="10" stroke-width="1"/>
      </g>
    </g>
    <path id="Контур_1266" data-name="Контур 1266" d="M3343.437,1354.143l-6.49-3.749v-.9l8.91-5.144.776.447,0,7.5-.232.4-2.5,1.446Zm-.051,3.823v-2.892l-.23-.4-6.492-3.747-.776.447v10.29l.776.448,6.492-3.748Zm.551.91h-.461l-6.491,3.749v.9l8.911,5.143.776-.447v-7.5l-.231-.4Zm6.072-.022-2.5,1.446-.232.4v7.5l.775.447,8.912-5.143v-.9l-6.492-3.749Zm.742-4.223-.23.4v2.892l.23.4,6.492,3.747.775-.447v-10.288l-.775-.449Zm-.78-.51h.461l6.491-3.748v-.9l-8.911-5.144-.776.447v7.5l.23.4Zm18.05-7.3a9.544,9.544,0,0,0-9.419-8.112c-.238,0-.492.023-.747.047-.084.007-.17.005-.254.014a12.889,12.889,0,0,0-23.745,2.516,8.25,8.25,0,0,0,.187,16.5h.587V1356.5h-.587a6.97,6.97,0,0,1,0-13.94l.282.018a.659.659,0,0,0,.639-.488,11.61,11.61,0,0,1,21.307-3.076,9.494,9.494,0,0,0-4.854,2.965.634.634,0,0,0,.062.9.627.627,0,0,0,.9-.062,8.275,8.275,0,0,1,5.061-2.733c.156-.023.306-.04.448-.054.237-.021.474-.038.714-.038a8.231,8.231,0,0,1,5.835,2.419q.281.28.533.587a8.25,8.25,0,0,1-5.538,13.46h0v1.282c.3-.027.605-.068.9-.122a9.454,9.454,0,0,0,7.689-10.8Z" transform="translate(-2629.527 -741.478)" fill="#5abeaa"/>
  </g>
</svg>
