<svg xmlns="http://www.w3.org/2000/svg" width="56.354" height="61.133" viewBox="0 0 56.354 61.133">
  <g id="Сгруппировать_1632" data-name="Сгруппировать 1632" transform="translate(-688.769 -577.919)">
    <g id="Сгруппировать_1545" data-name="Сгруппировать 1545">
      <g id="Сгруппировать_1544" data-name="Сгруппировать 1544">
        <path id="Контур_1214" data-name="Контур 1214" d="M744.623,620V594.889a5.929,5.929,0,0,0-2.965-5.135l-21.747-10.473a5.927,5.927,0,0,0-5.93,0l-21.747,10.473a5.929,5.929,0,0,0-2.965,5.135V620a5.929,5.929,0,0,0,2.965,5.136l21.747,12.556a5.932,5.932,0,0,0,5.93,0l21.747-12.556A5.929,5.929,0,0,0,744.623,620Z" fill="#fff" stroke="#647dc8" stroke-miterlimit="10" stroke-width="1"/>
      </g>
    </g>
    <g id="Сгруппировать_1594" data-name="Сгруппировать 1594" transform="translate(-41.154 116.916)">
      <path id="Контур_1267" data-name="Контур 1267" d="M761.356,490.022l.758.194.005-.015-.749-.733a4.736,4.736,0,0,0-1.767-1.087l-1.6-.547a7.34,7.34,0,0,0-.694,2.384l1.378-.269A6.081,6.081,0,0,1,761.356,490.022Z" fill="#647dc8"/>
      <path id="Контур_1268" data-name="Контур 1268" d="M762.31,488.506l.559.547.013-.011-.282-1.009a4.758,4.758,0,0,0-.987-1.825L760.5,484.93a7.445,7.445,0,0,0-1.782,1.724l1.321.452A6.082,6.082,0,0,1,762.31,488.506Z" fill="#647dc8"/>
      <path id="Контур_1269" data-name="Контур 1269" d="M763.9,487.671l.209.74.022-.006.255-1a4.73,4.73,0,0,0,.059-2.074l-.327-1.66a7.345,7.345,0,0,0-2.409.593l.923,1.065A6.087,6.087,0,0,1,763.9,487.671Z" fill="#647dc8"/>
      <path id="Контур_1270" data-name="Контур 1270" d="M761.287,491.812l.74-.209-.005-.021-1-.256a4.7,4.7,0,0,0-2.074-.059l-1.66.327a7.358,7.358,0,0,0,.594,2.41l1.057-.923A6.09,6.09,0,0,1,761.287,491.812Z" fill="#647dc8"/>
      <path id="Контур_1271" data-name="Контур 1271" d="M772.735,505.174v-2.691H749.86v2.691h1.346v-2.018h1.345v2.018H753.9v-2.018h1.346v2.018h1.345a2.018,2.018,0,0,1,4.037,0h1.346v-2.018h1.345v2.018h1.346v-2.018h1.345v2.018h1.346v-2.018H768.7v2.018h1.345v-2.018h1.346v2.018Z" fill="#647dc8"/>
      <path id="Контур_1272" data-name="Контур 1272" d="M749.187,485.663h2.692v2.691h-2.692Z" fill="#647dc8"/>
      <path id="Контур_1273" data-name="Контур 1273" d="M763.638,494.351l.194-.758-.015,0-.732.749A4.723,4.723,0,0,0,762,496.1l-.547,1.6a7.327,7.327,0,0,0,2.383.694l-.269-1.378A6.112,6.112,0,0,1,763.638,494.351Z" fill="#647dc8"/>
      <path id="Контур_1274" data-name="Контур 1274" d="M765.685,487.74l-.194.758.015.005.733-.749a4.736,4.736,0,0,0,1.087-1.767l.547-1.6a7.333,7.333,0,0,0-2.384-.694l.269,1.378A6.1,6.1,0,0,1,765.685,487.74Z" fill="#647dc8"/>
      <path id="Контур_1275" data-name="Контур 1275" d="M766.655,489.253l.01.013,1.009-.283A4.733,4.733,0,0,0,769.5,488l1.278-1.114a7.453,7.453,0,0,0-1.723-1.781l-.452,1.321a6.1,6.1,0,0,1-1.4,2.272Z" fill="#647dc8"/>
      <path id="Контур_1276" data-name="Контур 1276" d="M762.669,492.838l-.01-.013-1.009.282a4.752,4.752,0,0,0-1.826.988l-1.278,1.114a7.439,7.439,0,0,0,1.724,1.781l.452-1.321a6.067,6.067,0,0,1,1.4-2.272Z" fill="#647dc8"/>
      <path id="Контур_1277" data-name="Контур 1277" d="M770.384,489.01a6.093,6.093,0,0,1-2.347,1.269l-.741.209.006.021,1,.256a4.735,4.735,0,0,0,2.075.058l1.659-.326a7.357,7.357,0,0,0-.593-2.41Z" fill="#647dc8"/>
      <path id="Контур_1278" data-name="Контур 1278" d="M776.1,480.953H745.151v20.184H776.1Zm-26.912,16.82h-1.345v-1.345h1.345Zm2.019,0H749.86v-1.345h1.346Zm2.018,0h-1.345v-1.345h1.345Zm0-2.691h-5.382v-1.345h5.382Zm0-2.691h-5.382v-1.346h5.382Zm0-2.691h-5.382v-5.383h5.382Zm19.02,5.688a.694.694,0,0,1-.073.119,8.8,8.8,0,0,1-3.028,3.037l-.012.006a8.7,8.7,0,0,1-11.967-3.025v-.005a8.7,8.7,0,0,1,3.022-11.976h0a8.7,8.7,0,0,1,11.976,3.022v.005a8.672,8.672,0,0,1,.08,8.817Z" fill="#647dc8"/>
      <path id="Контур_1279" data-name="Контур 1279" d="M766.007,491.045a1.346,1.346,0,1,1-1.345-1.345A1.346,1.346,0,0,1,766.007,491.045Z" fill="#647dc8"/>
      <path id="Контур_1280" data-name="Контур 1280" d="M739.768,485.663h1.346v8.074h-1.346Z" fill="#647dc8"/>
      <path id="Контур_1281" data-name="Контур 1281" d="M743.8,506.52V476.244a.673.673,0,0,0-.673-.673h-4.709v1.346h3.364a.673.673,0,0,1,.673.673v28.93Z" fill="#647dc8"/>
      <path id="Контур_1282" data-name="Контур 1282" d="M765.428,494.42l-.208-.74-.022.005-.256,1a4.715,4.715,0,0,0-.058,2.074l.326,1.66a7.382,7.382,0,0,0,2.41-.593l-.923-1.058A6.089,6.089,0,0,1,765.428,494.42Z" fill="#647dc8"/>
      <path id="Контур_1283" data-name="Контур 1283" d="M767.017,493.584l-.56-.546-.012.01.282,1.01a4.74,4.74,0,0,0,.987,1.825l1.114,1.278a7.463,7.463,0,0,0,1.782-1.724l-1.321-.452A6.071,6.071,0,0,1,767.017,493.584Z" fill="#647dc8"/>
      <path id="Контур_1284" data-name="Контур 1284" d="M769.469,492.256a6.038,6.038,0,0,1-1.5-.187l-.758-.194-.005.015.749.733a4.744,4.744,0,0,0,1.768,1.087l1.6.547a7.339,7.339,0,0,0,.694-2.384l-1.378.269A6.01,6.01,0,0,1,769.469,492.256Z" fill="#647dc8"/>
    </g>
  </g>
</svg>
