<svg xmlns="http://www.w3.org/2000/svg" width="56.354" height="61.133" viewBox="0 0 56.354 61.133">
  <g id="Сгруппировать_1633" data-name="Сгруппировать 1633" transform="translate(-688.769 -577.919)">
    <g id="Сгруппировать_1545" data-name="Сгруппировать 1545">
      <g id="Сгруппировать_1544" data-name="Сгруппировать 1544">
        <path id="Контур_1214" data-name="Контур 1214" d="M744.623,620V594.889a5.929,5.929,0,0,0-2.965-5.135l-21.747-10.473a5.927,5.927,0,0,0-5.93,0l-21.747,10.473a5.929,5.929,0,0,0-2.965,5.135V620a5.929,5.929,0,0,0,2.965,5.136l21.747,12.556a5.932,5.932,0,0,0,5.93,0l21.747-12.556A5.929,5.929,0,0,0,744.623,620Z" fill="#fff" stroke="#2782fc" stroke-miterlimit="10" stroke-width="1"/>
      </g>
    </g>
    <path id="Контур_1285" data-name="Контур 1285" d="M5123.941,2705.417v4.648h-8.886v6.6h.319l-11.483,6.541,11.482,6.542h-.318v6.551h9.113v-.782h-8.331v-5.769h0l11.482-6.542-11.483-6.541h0v-5.819h8.1v4.649h15.144v-10.079Zm14.362,9.3h-13.579V2706.2H5138.3Zm-14.085,16.851h14.591v8.687h-14.591Z" transform="translate(-4407.622 -2114.931)" fill="#2782fc"/>
  </g>
</svg>
