<svg xmlns="http://www.w3.org/2000/svg" width="56.354" height="61.133" viewBox="0 0 56.354 61.133">
  <g id="Сгруппировать_1634" data-name="Сгруппировать 1634" transform="translate(-688.769 -577.919)">
    <g id="Сгруппировать_1545" data-name="Сгруппировать 1545">
      <g id="Сгруппировать_1544" data-name="Сгруппировать 1544">
        <path id="Контур_1214" data-name="Контур 1214" d="M744.623,620V594.889a5.929,5.929,0,0,0-2.965-5.135l-21.747-10.473a5.927,5.927,0,0,0-5.93,0l-21.747,10.473a5.929,5.929,0,0,0-2.965,5.135V620a5.929,5.929,0,0,0,2.965,5.136l21.747,12.556a5.932,5.932,0,0,0,5.93,0l21.747-12.556A5.929,5.929,0,0,0,744.623,620Z" fill="#fff" stroke="#f0b43c" stroke-miterlimit="10" stroke-width="1"/>
      </g>
    </g>
    <path id="Контур_1286" data-name="Контур 1286" d="M-391.182,3000.111a7.5,7.5,0,0,0-4.319,1.368,18.544,18.544,0,0,0-1.978-.508,1.215,1.215,0,0,1-.728-.526,1.116,1.116,0,0,1,.092-.953,10.285,10.285,0,0,0,1.67-3.322,4.815,4.815,0,0,0,1.645-3.182,3.479,3.479,0,0,0-.282-2.02,11.865,11.865,0,0,0,.261-3.478,7.249,7.249,0,0,0-1.384-4.187,3.216,3.216,0,0,0-3.013-1.065,4.621,4.621,0,0,0-3.466-1.4,5.607,5.607,0,0,0-5.113,2.994,9.172,9.172,0,0,0-.813,7.156,1.581,1.581,0,0,0-.338,1,5.793,5.793,0,0,0,.939,3.423,2.382,2.382,0,0,0,.775.63,8.716,8.716,0,0,0,1.7,3.421,1.543,1.543,0,0,1-.8,1.518c-4.293.839-8.83,3.347-8.83,6.371v2.069c0,2.635,4.344,3.915,13.281,3.915a37.192,37.192,0,0,0,5.306-.406,7.526,7.526,0,0,0,5.393,2.277,7.557,7.557,0,0,0,7.549-7.548A7.558,7.558,0,0,0-391.182,3000.111Zm-10.72,3.685a4.131,4.131,0,0,1,1.4,1l-1.4.819-1.476-.818A4.824,4.824,0,0,1-401.9,3003.8Zm-1.519,7.7a11.463,11.463,0,0,1,1.459-5.436l.06-.095.057.091a11.675,11.675,0,0,1,1.424,5.488A8.908,8.908,0,0,1-403.421,3011.492Zm12.239,2.929a6.769,6.769,0,0,1-6.761-6.761,6.769,6.769,0,0,1,6.761-6.762,6.769,6.769,0,0,1,6.762,6.762A6.769,6.769,0,0,1-391.182,3014.421Zm3.816-9.755a.663.663,0,0,1,.284.43.673.673,0,0,1-.1.509l-3.836,5.657a.888.888,0,0,1-.709.407,1.037,1.037,0,0,1-.7-.306l-2.253-2.253a.677.677,0,0,1,0-.957l.555-.558a.7.7,0,0,1,.956,0l1.223,1.223,2.993-4.414a.694.694,0,0,1,.939-.18Z" transform="translate(1118.431 -2390.347)" fill="#f0b43c"/>
  </g>
</svg>
