<svg xmlns="http://www.w3.org/2000/svg" xmlns:xlink="http://www.w3.org/1999/xlink" width="56.354" height="61.133" viewBox="0 0 56.354 61.133">
  <defs>
    <clipPath id="clip-path">
      <rect id="Прямоугольник_2375" data-name="Прямоугольник 2375" width="40" height="36" fill="#dc506e"/>
    </clipPath>
  </defs>
  <g id="i-Cybersecurity" transform="translate(-688.769 -577.919)">
    <g id="Сгруппировать_1545" data-name="Сгруппировать 1545">
      <g id="Сгруппировать_1544" data-name="Сгруппировать 1544">
        <path id="Контур_1214" data-name="Контур 1214" d="M744.623,620V594.889a5.929,5.929,0,0,0-2.965-5.135l-21.747-10.473a5.927,5.927,0,0,0-5.93,0l-21.747,10.473a5.929,5.929,0,0,0-2.965,5.135V620a5.929,5.929,0,0,0,2.965,5.136l21.747,12.556a5.932,5.932,0,0,0,5.93,0l21.747-12.556A5.929,5.929,0,0,0,744.623,620Z" fill="#fff" stroke="#dc506e" stroke-miterlimit="10" stroke-width="1"/>
      </g>
    </g>
    <g id="Сгруппировать_1650" data-name="Сгруппировать 1650" transform="translate(697.269 590.486)">
      <g id="Сгруппировать_1649" data-name="Сгруппировать 1649" clip-path="url(#clip-path)">
        <path id="Контур_1336" data-name="Контур 1336" d="M31,36H9V32.42h7.051v-6.2H0V0H40V26.215H23.856v6.2H31ZM9.754,35.249H30.246V33.171H23.107V25.464H39.251V.751H.749V25.464H16.8v7.707H9.754Zm.016-13.33H3.516V4.066H13.3V3.315H2.767V22.67h7Zm27.463-18.6H26.311v.751H36.484V21.919H29.839v.751h7.394ZM26.013,9.438H23.356V8.476c0-1.632-.46-4.369-3.543-4.369-3.2,0-3.543,3.055-3.543,4.369v.962H13.613V8.476c0-4.273,2.434-7.034,6.2-7.034s6.2,2.761,6.2,7.034Zm2.657,3.554v8.885a2.662,2.662,0,0,1-2.657,2.666h-12.4a2.662,2.662,0,0,1-2.657-2.666V12.993a2.662,2.662,0,0,1,2.657-2.666h12.4a2.662,2.662,0,0,1,2.657,2.666m-7.085,3.554a1.771,1.771,0,1,0-2.657,1.531V20.1a.886.886,0,1,0,1.771,0V18.077a1.771,1.771,0,0,0,.886-1.531" fill="#dc506e"/>
      </g>
    </g>
  </g>
</svg>
